<?xml version="1.0" encoding="UTF-8" standalone="no"?>
<!-- Generator: Adobe Illustrator 15.1.0, SVG Export Plug-In . SVG Version: 6.00 Build 0)  -->

<svg
   xmlns:dc="http://purl.org/dc/elements/1.1/"
   xmlns:cc="http://creativecommons.org/ns#"
   xmlns:rdf="http://www.w3.org/1999/02/22-rdf-syntax-ns#"
   xmlns:svg="http://www.w3.org/2000/svg"
   xmlns="http://www.w3.org/2000/svg"
   xmlns:sodipodi="http://sodipodi.sourceforge.net/DTD/sodipodi-0.dtd"
   xmlns:inkscape="http://www.inkscape.org/namespaces/inkscape"
   version="1.1"
   id="Layer_1"
   x="0px"
   y="0px"
   width="54"
   height="54"
   viewBox="0 0 54 54"
   enable-background="new 0 0 100 100"
   xml:space="preserve"
   sodipodi:docname="partly_cloudy_night.svg"
   inkscape:version="0.92.1 r15371"><metadata
     id="metadata9"><rdf:RDF><cc:Work
         rdf:about=""><dc:format>image/svg+xml</dc:format><dc:type
           rdf:resource="http://purl.org/dc/dcmitype/StillImage" /><dc:title></dc:title></cc:Work></rdf:RDF></metadata><defs
     id="defs7" /><sodipodi:namedview
     pagecolor="#ffffff"
     bordercolor="#666666"
     borderopacity="1"
     objecttolerance="10"
     gridtolerance="10"
     guidetolerance="10"
     inkscape:pageopacity="0"
     inkscape:pageshadow="2"
     inkscape:window-width="1600"
     inkscape:window-height="900"
     id="namedview5"
     showgrid="false"
     inkscape:zoom="9.44"
     inkscape:cx="53.291908"
     inkscape:cy="31.674929"
     inkscape:window-x="0"
     inkscape:window-y="0"
     inkscape:window-maximized="0"
     inkscape:current-layer="Layer_1" /><path
     d="m 46.318,27.617 v 0 c 1.368,1.949 2.179,4.318 2.179,6.883 0,6.625 -5.371,11.998 -11.998,11.998 -2.775,0 -12.801,0 -15.998,0 -8.836,0 -15.998,-7.162 -15.998,-15.998 0,-8.836 7.162,-15.998 15.998,-15.998 2.002,0 3.914,0.375 5.68,1.047 v 0 c 1.635,-4.682 6.078,-8.047 11.318,-8.047 0.755,0 1.491,0.078 2.207,0.212 -0.131,0.575 -0.207,1.173 -0.207,1.788 0,4.418 3.581,7.999 7.998,7.999 0.616,0 1.213,-0.076 1.789,-0.208 0.133,0.717 0.211,1.453 0.211,2.208 -10e-4,3.133 -1.212,5.979 -3.179,8.116 z M 8.502,30.5 c 0,6.627 5.371,11.998 11.998,11.998 3.616,0 12.979,0 15.998,0 4.418,0 7.999,-3.582 7.999,-7.998 0,-4.418 -3.581,-8 -7.999,-8 -1.6,0 -3.083,0.482 -4.334,1.291 -1.231,-5.316 -5.973,-9.29 -11.664,-9.29 -6.627,0 -11.998,5.372 -11.998,11.999 z M 28.051,16.404 c 0.001,0 0.002,0 0.002,0 0,0 -0.001,0 -0.002,0 z m 7.659,-4.695 c -2.9,0.664 -5.175,2.91 -5.925,5.775 v 0 c 1.918,1.372 3.523,3.152 4.68,5.22 0.664,-0.113 1.337,-0.205 2.033,-0.205 2.618,0 5.033,0.85 7.005,2.271 v 0 c 0.858,-0.979 1.485,-2.168 1.786,-3.482 -4.853,-0.904 -8.675,-4.723 -9.579,-9.579 z"
     id="path2"
     inkscape:connector-curvature="0"
     style="clip-rule:evenodd;fill-rule:evenodd;fill:#65c4ff;fill-opacity:1" /></svg>
