<?xml version="1.0" encoding="UTF-8" standalone="no"?>
<!-- Generator: Adobe Illustrator 15.1.0, SVG Export Plug-In . SVG Version: 6.00 Build 0)  -->

<svg
   xmlns:dc="http://purl.org/dc/elements/1.1/"
   xmlns:cc="http://creativecommons.org/ns#"
   xmlns:rdf="http://www.w3.org/1999/02/22-rdf-syntax-ns#"
   xmlns:svg="http://www.w3.org/2000/svg"
   xmlns="http://www.w3.org/2000/svg"
   xmlns:sodipodi="http://sodipodi.sourceforge.net/DTD/sodipodi-0.dtd"
   xmlns:inkscape="http://www.inkscape.org/namespaces/inkscape"
   version="1.1"
   id="Layer_1"
   x="0px"
   y="0px"
   width="54"
   height="54"
   viewBox="0 0 54 54"
   enable-background="new 0 0 100 100"
   xml:space="preserve"
   sodipodi:docname="sleet.svg"
   inkscape:version="0.92.1 r15371"><metadata
     id="metadata9"><rdf:RDF><cc:Work
         rdf:about=""><dc:format>image/svg+xml</dc:format><dc:type
           rdf:resource="http://purl.org/dc/dcmitype/StillImage" /><dc:title></dc:title></cc:Work></rdf:RDF></metadata><defs
     id="defs7" /><sodipodi:namedview
     pagecolor="#ffffff"
     bordercolor="#666666"
     borderopacity="1"
     objecttolerance="10"
     gridtolerance="10"
     guidetolerance="10"
     inkscape:pageopacity="0"
     inkscape:pageshadow="2"
     inkscape:window-width="1600"
     inkscape:window-height="900"
     id="namedview5"
     showgrid="false"
     inkscape:zoom="6.675088"
     inkscape:cx="44.153154"
     inkscape:cy="29.343755"
     inkscape:window-x="0"
     inkscape:window-y="0"
     inkscape:window-maximized="0"
     inkscape:current-layer="Layer_1" /><path
     d="m 40.998,36.3 v -4.381 c 2.389,-1.383 3.999,-3.961 3.999,-6.92 C 44.997,20.582 41.416,17 36.999,17 35.398,17 33.915,17.48 32.665,18.291 31.434,12.974 26.691,9.001 21,9.001 c -6.626,0 -11.998,5.372 -11.998,11.998 0,3.55 1.55,6.728 3.999,8.925 V 34.84 C 8.225,32.072 5.003,26.918 5.003,20.999 5.003,12.164 12.165,5.002 21,5.002 c 6.004,0 11.229,3.311 13.966,8.203 C 35.629,13.092 36.302,13 36.999,13 c 6.626,0 11.998,5.372 11.998,11.999 0,5.223 -3.342,9.653 -7.999,11.301 z m -21.997,0.698 c -1.104,0 -1,-0.895 -1,-1.998 v -8 c 0,-1.104 -0.104,-2 1,-2 1.104,0 1,0.896 1,2 v 8 c 0,1.103 0.104,1.998 -1,1.998 z m 0,4 c 1.104,0 1.999,0.896 1.999,2 0,1.105 -0.895,2 -1.999,2 -1.104,0 -2,-0.895 -2,-2 0,-1.104 0.895,-2 2,-2 z m 7.999,0 c -1.104,0 -1,-0.895 -1,-2 V 31 c 0,-1.105 -0.104,-2 1,-2 1.104,0 1,0.895 1,2 v 7.998 c 0,1.105 0.104,2 -1,2 z m 0,4 c 1.104,0 1.999,0.895 1.999,2 0,1.104 -0.895,2 -1.999,2 -1.104,0 -2,-0.896 -2,-2 0,-1.106 0.895,-2 2,-2 z m 7.999,-8 c -1.104,0 -1,-0.895 -1,-1.998 v -8 c 0,-1.104 -0.104,-2 1,-2 1.104,0 1,0.896 1,2 v 8 c 0,1.103 0.104,1.998 -1,1.998 z m 0,4 c 1.104,0 2,0.896 2,2 0,1.105 -0.896,2 -2,2 -1.104,0 -2,-0.895 -2,-2 0,-1.104 0.896,-2 2,-2 z"
     id="path2"
     inkscape:connector-curvature="0"
     style="clip-rule:evenodd;fill-rule:evenodd;fill:#65c4ff;fill-opacity:1" /></svg>
